<svg width="500" height="82" viewBox="0 0 500 82" fill="none" xmlns="http://www.w3.org/2000/svg">
<path d="M256.875 0L221.586 20.3749L256.875 40.7497V0Z" fill="#4B759B"/>
<path d="M292.164 20.3796L256.875 0V40.7497L292.164 20.3796Z" fill="#6097BF"/>
<path d="M221.586 20.3749V61.1246L256.875 40.7498L221.586 20.3749Z" fill="#305073"/>
<path d="M221.586 61.1246L256.87 81.4995L256.875 40.7498L221.586 61.1246Z" fill="#25354C"/>
<path d="M256.875 40.7497L292.164 61.1246V20.3796L256.875 40.7497Z" fill="#91C0DD"/>
<path d="M256.87 81.4995L292.164 61.1246L256.875 40.7498L256.87 81.4995Z" fill="#19273C"/>
<path d="M312.682 6.07144H317.938V26.2412H312.682V6.07144Z" fill="white"/>
<path d="M329.68 18.4385C328.173 17.1221 326.78 15.4242 326.78 15.4242C326.78 15.4242 327.166 18.014 327.166 19.6738V26.2412H322.335V5.79959H322.76L332.074 13.836C333.696 15.2668 334.969 16.8884 334.969 16.8884C334.969 16.8884 334.659 14.2605 334.659 12.6008V6.06668H339.486V26.5465H339.061L329.68 18.4385Z" fill="white"/>
<path d="M351.161 18.4385C349.654 17.1221 348.262 15.4242 348.262 15.4242C348.262 15.4242 348.648 18.014 348.648 19.6738V26.2412H343.816V5.79959H344.241L353.556 13.836C355.177 15.2668 356.451 16.8884 356.451 16.8884C356.451 16.8884 356.141 14.2605 356.141 12.6008V6.06668H360.972V26.5465H360.547L351.161 18.4385Z" fill="white"/>
<path d="M364.802 16.1539C364.802 9.9728 369.748 5.72327 375.662 5.72327C381.571 5.72327 386.517 9.9728 386.517 16.1539C386.517 22.2635 381.571 26.5894 375.662 26.5894C369.743 26.5894 364.802 22.2635 364.802 16.1539ZM381.147 16.1539C381.147 12.7581 378.905 10.3591 375.657 10.3591C372.414 10.3591 370.172 12.7534 370.172 16.1539C370.172 19.6356 372.414 21.9535 375.657 21.9535C378.905 21.9535 381.147 19.6356 381.147 16.1539Z" fill="white"/>
<path d="M387.285 6.07144H393.08L395.669 11.9473C396.714 14.3416 397.329 16.9695 397.329 16.9695C397.329 16.9695 397.944 14.3034 398.989 11.9473L401.579 6.07144H406.911L397.367 26.5131H396.9L387.285 6.07144Z" fill="white"/>
<path d="M413.717 5.83774H414.141L423.647 26.2412H418.2L417.504 24.6149H410.049L409.353 26.2412H404.25L413.717 5.83774ZM416.187 21.0617L415.338 19.0537C414.451 16.9695 413.831 14.8042 413.831 14.8042C413.831 14.8042 413.288 16.9695 412.357 19.0537L411.47 21.0617H416.187Z" fill="white"/>
<path d="M428.397 10.631H422.678V6.07144H439.41V10.631H433.691V26.2412H428.397V10.631Z" fill="white"/>
<path d="M443.039 6.07144H448.29V26.2412H443.039V6.07144Z" fill="white"/>
<path d="M452.196 16.1539C452.196 9.9728 457.142 5.72327 463.056 5.72327C468.97 5.72327 473.911 9.9728 473.911 16.1539C473.911 22.2635 468.97 26.5894 463.056 26.5894C457.142 26.5894 452.196 22.2635 452.196 16.1539ZM468.541 16.1539C468.541 12.7581 466.299 10.3591 463.056 10.3591C459.813 10.3591 457.571 12.7534 457.571 16.1539C457.571 19.6356 459.813 21.9535 463.056 21.9535C466.299 21.9535 468.541 19.6356 468.541 16.1539Z" fill="white"/>
<path d="M485.077 18.4385C483.574 17.1221 482.181 15.4242 482.181 15.4242C482.181 15.4242 482.568 18.014 482.568 19.6738V26.2412H477.736V5.79959H478.161L487.476 13.836C489.097 15.2668 490.371 16.8884 490.371 16.8884C490.371 16.8884 490.061 14.2605 490.061 12.6008V6.06668H494.892V26.5465H494.467L485.077 18.4385Z" fill="white"/>
<path d="M311.442 55.2392C311.442 43.1297 320.709 34.5161 331.926 34.5161C339.405 34.5161 344.198 37.1965 347.856 42.3141L345.5 44.1026C342.409 39.8769 338.184 37.3539 331.926 37.3539C322.011 37.3539 314.78 45.1566 314.78 55.2344C314.78 65.3932 322.011 73.1959 331.683 73.1959C338.265 73.1959 343.058 70.3534 346.149 66.1229L348.586 67.9114C345.009 73.029 339.405 76.0385 331.683 76.0385C320.713 76.0433 311.442 67.4297 311.442 55.2392Z" fill="white"/>
<path d="M350.684 55.2392C350.684 43.0486 360.276 34.5161 371.655 34.5161C383.116 34.5161 392.541 43.0486 392.541 55.2392C392.541 67.4297 383.116 76.0433 371.655 76.0433C360.276 76.0433 350.684 67.4297 350.684 55.2392ZM389.212 55.2392C389.212 45.0803 381.895 37.3587 371.66 37.3587C361.42 37.3587 354.023 45.0803 354.023 55.2392C354.023 65.398 361.42 73.2007 371.66 73.2007C381.895 73.2007 389.212 65.398 389.212 55.2392Z" fill="white"/>
<path d="M397.11 55.5683H406.811V58.4919H397.11V55.5683Z" fill="white"/>
<path d="M412.315 35.1648H415.563V72.5521H430.906V75.3946H412.315V35.1648Z" fill="white"/>
<path d="M440.359 68.0831L437.43 75.3994H434.182L450.68 34.683H451.409L467.993 75.3994H464.578L461.654 68.0831M460.514 65.2358L452.63 45.3236C451.982 43.6972 451.085 40.0391 451.085 40.0391C451.085 40.0391 450.112 43.6972 449.459 45.3236L441.494 65.2358" fill="white"/>
<path d="M472.204 35.1648H485.778C493.337 35.1648 496.666 39.4715 496.666 44.9993C496.666 48.9006 495.121 51.829 491.544 53.1311C496.666 54.2662 500 58.2487 500 63.6953C500 70.2008 496.018 75.3994 487.404 75.3994H472.209V35.1648H472.204ZM486.35 51.9912C491.634 51.9912 493.499 49.1439 493.499 44.9993C493.499 40.9357 491.382 38.0121 485.449 38.0121H475.452V51.9912H486.35ZM487.08 72.5521C494.148 72.5521 496.671 68.894 496.671 63.6905C496.671 58.4919 493.828 54.7527 487.003 54.7527H475.461V72.5521H487.08Z" fill="white"/>
<path fill-rule="evenodd" clip-rule="evenodd" d="M18.7484 61.6799C18.7484 63.4542 19.1207 64.9903 19.869 66.2882C20.6164 67.5862 21.5995 68.663 22.8229 69.5151C24.0444 70.369 25.4374 70.9991 26.9992 71.4099C28.5619 71.8198 30.1576 72.0247 31.7881 72.0247C33.1454 72.0247 34.7411 71.8198 36.5752 71.4099C38.4084 70.9991 40.3104 70.369 42.2802 69.5151C44.2474 68.663 46.2182 67.5179 48.1862 66.0842C50.1561 64.6487 51.9223 62.9257 53.4841 60.9122C55.0441 58.8979 56.3013 56.5411 57.2505 53.8446C58.2033 51.1462 58.6793 48.056 58.6793 44.5739C58.6793 41.0935 58.2033 37.9188 57.2505 35.0488C56.3013 32.1832 55.0101 29.6215 53.3823 27.3672C51.7509 25.1147 49.8685 23.1678 47.729 21.5283C45.5895 19.8924 43.3652 18.5261 41.0569 17.4322C38.7477 16.341 36.4046 15.5393 34.0276 15.0269C31.6497 14.5155 29.4102 14.2575 27.3055 14.2575C25.1999 14.2575 23.5703 14.36 22.4166 14.5649C21.2611 14.7708 20.411 15.0269 19.869 15.3334C19.3261 15.6417 19.0037 15.9995 18.9011 16.4085C18.7993 16.8174 18.7484 17.194 18.7484 17.5347V61.6799ZM12.6209 74.4507C11.1253 74.4507 9.53045 74.5145 7.83474 74.6457C6.13903 74.7743 4.68084 74.839 3.46107 74.839C3.18961 74.839 2.81368 74.8075 2.34042 74.7428C1.86716 74.6763 1.62963 74.3878 1.62963 73.8682C1.62963 73.4593 1.86716 73.0476 2.34042 72.6395C2.81368 72.2287 3.83164 71.8863 5.39341 71.613C5.93543 71.5456 6.47835 71.4252 7.02126 71.2535C7.56417 71.0836 8.05529 70.7744 8.49641 70.3313C8.93663 69.8872 9.29381 69.2562 9.56527 68.4365C9.83673 67.6158 9.97246 66.4527 9.97246 64.949V16.7572C9.97246 16.2799 9.73404 15.9222 9.25988 15.6822C8.78483 15.4422 8.19192 15.2723 7.47845 15.1689C6.76588 15.0665 6.02026 14.9982 5.23893 14.9631C4.45939 14.9299 3.73163 14.8786 3.05299 14.8094C1.8993 14.6728 1.10101 14.555 0.661675 14.4517C0.220558 14.3492 0 14.0247 0 13.4764C0 13.0665 0.152694 12.7421 0.459869 12.5021C0.762579 12.263 1.11887 12.0922 1.52694 11.9906C1.93323 11.889 2.35739 11.8198 2.7985 11.7848C3.23783 11.7506 3.62895 11.7344 3.96916 11.7344H13.2317C15.7436 11.7344 18.2715 11.6356 20.8182 11.4441C23.3649 11.2482 26.2679 11.1511 29.5254 11.1511C34.8893 11.1511 39.913 11.836 44.5983 13.2005C49.281 14.5649 53.3734 16.6835 56.871 19.5499C60.3669 22.4191 63.1333 26.09 65.1701 30.5617C67.2087 35.0344 68.2276 40.343 68.2276 46.4893C68.2276 50.3139 67.3962 53.9327 65.7318 57.3456C64.0673 60.7612 61.8108 63.7301 58.9588 66.2586C56.1076 68.7861 52.7635 70.7807 48.9265 72.2494C45.0895 73.7181 40.9998 74.4507 36.6556 74.4507H12.6209V74.4507Z" fill="white"/>
<path fill-rule="evenodd" clip-rule="evenodd" d="M88.9672 76.296C86.592 76.296 84.6051 75.9518 83.0085 75.2713C81.4128 74.5882 80.1565 73.5986 79.2394 72.3006C78.3232 71.0045 77.6785 69.4657 77.3044 67.6896C76.9302 65.9143 76.7445 63.9333 76.7445 61.7482C76.7445 60.177 76.7597 58.4332 76.7936 56.5223C76.8249 54.6086 76.8409 52.6977 76.8409 50.784C76.8409 48.8048 76.8552 46.8758 76.8874 44.999C76.9213 43.1186 76.9365 41.4279 76.9365 39.9241C76.9365 39.1736 76.5981 38.6963 75.9194 38.4905C75.2417 38.2873 74.597 38.1148 73.9853 37.979C72.7655 37.6366 71.9503 37.3813 71.5422 37.2114C71.1359 37.0415 70.9332 36.7845 70.9332 36.442C70.9332 35.9638 71.1698 35.6915 71.6449 35.6222C72.1208 35.5548 72.7316 35.5198 73.4763 35.5198C74.2228 35.5198 74.9524 35.5521 75.664 35.6169C76.3766 35.6816 77.1088 35.7139 77.8553 35.7139C78.6027 35.7139 79.3519 35.6816 80.1029 35.6169C80.8512 35.5521 81.6004 35.5198 82.3504 35.5198C83.0282 35.5198 83.4559 35.6555 83.6247 35.9297C83.7961 36.202 83.8819 36.7161 83.8819 37.464C83.8819 42.0364 83.8479 46.5918 83.7836 51.1283C83.7202 55.6684 83.689 60.2219 83.689 64.7935C83.689 66.9094 84.4007 68.5291 85.8249 69.6553C87.251 70.7807 89.2181 71.3434 91.7291 71.3434C94.5794 71.3434 96.8001 71.0719 98.3941 70.5254C99.9898 69.9789 101.194 69.2787 102.008 68.4266C102.82 67.5754 103.347 66.6028 103.586 65.5089C103.824 64.4177 103.942 63.3607 103.942 62.336C103.942 58.6543 103.973 55.0023 104.039 51.3853C104.102 47.7693 104.137 44.1164 104.137 40.4338C104.137 40.1596 104.085 39.9214 103.982 39.7165C103.88 39.5125 103.644 39.3408 103.27 39.2042C102.897 39.0684 102.371 38.9156 101.694 38.7457C101.015 38.575 100.065 38.3188 98.8441 37.9754C98.4378 37.8397 97.844 37.6348 97.0636 37.3624C96.2822 37.0892 95.8947 36.7485 95.8947 36.3386C95.8947 35.998 96.1295 35.7759 96.6046 35.6735C97.0796 35.571 97.5886 35.5198 98.1315 35.5198C99.0138 35.5198 99.8781 35.5521 100.727 35.6169C101.573 35.6816 102.438 35.7139 103.322 35.7139C104.338 35.7139 105.34 35.6816 106.323 35.6169C107.307 35.5521 108.309 35.5198 109.327 35.5198C109.667 35.5198 110.109 35.6402 110.651 35.8775C111.193 36.1166 111.466 36.7134 111.466 37.6689C111.466 42.8562 111.401 48.0281 111.273 53.1803C111.144 58.3352 111.079 63.5063 111.079 68.6936C111.079 69.7848 111.401 70.4679 112.046 70.7402C112.69 71.0117 113.249 71.1492 113.726 71.1492C115.693 71.1492 117.067 71.1852 117.848 71.2562C118.628 71.3245 119.018 71.6364 119.018 72.191C119.018 72.6081 118.864 72.884 118.559 73.0224C118.254 73.1626 117.727 73.2993 116.982 73.4386C113.386 73.9959 110.562 74.4777 108.511 74.8947C106.458 75.3109 105.193 75.5203 104.715 75.5203C104.329 75.5203 104.102 75.3648 104.039 75.0601C103.973 74.7518 103.942 74.3599 103.942 73.8808V71.524C103.942 70.7043 103.705 70.2953 103.229 70.2953C102.82 70.2953 102.244 70.6045 101.497 71.2193C100.75 71.8332 99.7817 72.5334 98.5941 73.3181C97.4056 74.1046 96.0126 74.7949 94.4169 75.3954C92.8194 75.994 91.0049 76.296 88.9672 76.296" fill="white"/>
<path fill-rule="evenodd" clip-rule="evenodd" d="M127.566 16.128C127.566 14.7627 127.312 13.7883 126.802 13.2076C126.293 12.6288 125.717 12.218 125.073 11.9789C124.427 11.7389 123.852 11.552 123.343 11.4153C122.833 11.2778 122.579 10.9722 122.579 10.4931C122.579 10.1507 122.748 9.89539 123.089 9.72461C123.427 9.55293 123.969 9.33002 124.717 9.05677L131.652 6.39438C131.923 6.26494 132.197 6.20023 132.469 6.20023C132.74 6.20023 133.048 6.20023 133.39 6.20023C133.659 6.20023 133.916 6.31887 134.152 6.55887C134.392 6.79886 134.511 7.29233 134.511 8.04556V50.1899C134.511 51.2838 134.817 51.8285 135.426 51.8285C135.562 51.8285 136.086 51.6073 137.005 51.1642C137.921 50.7211 138.988 50.1377 140.209 49.4204C141.431 48.7032 142.737 47.896 144.126 47.0097C145.517 46.1199 146.789 45.2669 147.944 44.4453C149.098 43.6247 150.063 42.8885 150.842 42.2387C151.624 41.5906 152.013 41.0944 152.013 40.7529C152.013 40.0688 151.809 39.5376 151.401 39.1619C150.995 38.7862 150.554 38.4788 150.078 38.2379C149.603 37.9997 149.163 37.7597 148.757 37.5206C148.349 37.2806 148.147 36.9552 148.147 36.5435C148.147 36.273 148.298 36.0348 148.604 35.8272C148.909 35.6222 149.231 35.5198 149.57 35.5198C150.657 35.5198 151.892 35.5521 153.284 35.6168C154.674 35.6816 156.049 35.7139 157.406 35.7139C158.694 35.7139 160.033 35.6816 161.424 35.6168C162.815 35.5521 164.019 35.5198 165.038 35.5198C165.512 35.5198 165.954 35.5881 166.361 35.7247C166.766 35.8613 166.97 36.202 166.97 36.7485C166.97 37.0208 166.783 37.2779 166.41 37.5152C166.036 37.7543 165.58 37.9772 165.038 38.183C164.494 38.3862 163.934 38.5749 163.358 38.7457C162.781 38.9165 162.323 39.0693 161.984 39.2059C161.238 39.5484 159.799 40.3142 157.661 41.5106C155.524 42.7061 153.318 43.9842 151.046 45.3487C148.772 46.7149 146.754 47.9949 144.99 49.1885C143.227 50.384 142.347 51.1157 142.347 51.3907C142.347 51.7332 142.448 52.0217 142.65 52.2617C142.853 52.4999 143.025 52.6869 143.16 52.8244L160.763 68.9003C161.781 69.8567 162.781 70.5739 163.764 71.0512C164.747 71.5276 165.613 71.9231 166.361 72.2287C167.107 72.5334 167.699 72.7923 168.139 72.9954C168.58 73.2013 168.801 73.4745 168.801 73.8152C168.801 74.4974 167.921 74.839 166.157 74.839C165.07 74.839 163.884 74.7743 162.594 74.6457C161.307 74.5145 159.882 74.4507 158.322 74.4507C156.963 74.4507 155.675 74.5145 154.455 74.6457C153.234 74.7743 152.012 74.839 150.791 74.839C149.706 74.839 148.925 74.7868 148.451 74.6862C147.976 74.5837 147.739 74.2943 147.739 73.8152C147.739 73.3397 148.011 73.0134 148.553 72.8453C149.098 72.6755 149.807 72.52 150.69 72.3833C151.233 72.3141 151.688 72.1451 152.064 71.8719C152.436 71.5995 152.624 71.2939 152.624 70.9497C152.624 70.6108 152.251 70.0634 151.503 69.312L136.138 54.6778C135.732 54.267 135.426 54.0639 135.224 54.0639C134.748 54.0639 134.511 54.2356 134.511 54.5744V69.1088C134.511 70.2683 134.765 71.0719 135.273 71.5141C135.784 71.9564 136.275 72.2458 136.752 72.3833C137.565 72.6575 138.26 72.8453 138.837 72.946C139.413 73.0503 139.701 73.3397 139.701 73.8152C139.701 74.2242 139.446 74.4974 138.938 74.6349C138.427 74.7716 137.903 74.839 137.361 74.839C136.138 74.839 134.984 74.7743 133.895 74.6457C132.807 74.5145 131.685 74.4507 130.53 74.4507C129.302 74.4507 127.994 74.5145 126.6 74.6457C125.208 74.7743 124.072 74.839 123.19 74.839C122.85 74.839 122.36 74.7868 121.716 74.6862C121.071 74.581 120.749 74.2934 120.749 73.8152C120.749 73.337 120.918 73.0134 121.257 72.8426C121.596 72.671 122.038 72.5164 122.579 72.3788C123.258 72.1748 123.902 72.0058 124.514 71.8674C125.123 71.7308 125.666 71.5258 126.141 71.2535C126.617 70.9802 126.97 70.5695 127.21 70.0239C127.448 69.4783 127.566 68.6576 127.566 67.5637V16.128" fill="white"/>
<path fill-rule="evenodd" clip-rule="evenodd" d="M185.116 47.558C187.356 47.558 189.153 47.4744 190.511 47.3027C191.865 47.1338 192.916 46.8416 193.663 46.4318C194.409 46.0237 194.901 45.5113 195.139 44.8974C195.375 44.2835 195.494 43.497 195.494 42.5406C195.494 40.7663 194.782 39.2841 193.357 38.0869C191.932 36.8941 190.136 36.2964 187.965 36.2964C186.133 36.2964 184.49 36.6891 183.031 37.4738C181.572 38.2603 180.351 39.1969 179.366 40.289C178.383 41.3811 177.62 42.5074 177.077 43.6687C176.534 44.8291 176.264 45.8187 176.264 46.6385C176.264 46.8416 176.314 46.9971 176.415 47.0978C176.519 47.2012 176.858 47.2875 177.435 47.3549C178.01 47.4223 178.893 47.4744 180.08 47.5077C181.267 47.5418 182.946 47.558 185.116 47.558ZM175.432 50.6662C175.303 51.0051 175.241 51.4842 175.241 52.0972C175.241 52.7138 175.241 53.4293 175.241 54.249C175.241 56.4324 175.426 58.5491 175.799 60.5967C176.174 62.6452 176.885 64.4519 177.936 66.0204C178.989 67.5907 180.48 68.8715 182.413 69.862C184.347 70.8499 186.874 71.3433 189.995 71.3433C191.962 71.3433 193.49 71.1402 194.574 70.7294C195.659 70.3205 196.506 69.862 197.119 69.3488C197.728 68.8347 198.202 68.3574 198.541 67.9151C198.881 67.472 199.255 67.2473 199.661 67.2473C200.272 67.2473 200.578 67.5214 200.578 68.0679C200.578 68.2711 200.305 68.8023 199.763 69.6526C199.221 70.5101 198.338 71.4323 197.119 72.4274C195.897 73.426 194.353 74.3176 192.489 75.1095C190.622 75.8987 188.366 76.296 185.72 76.296C180.092 76.296 175.746 74.4336 172.69 70.7097C169.632 66.9875 168.103 61.9144 168.103 55.4913C168.103 53.1003 168.475 50.624 169.221 48.0641C169.964 45.5015 171.099 43.177 172.624 41.0944C174.149 39.01 176.062 37.2851 178.365 35.9188C180.669 34.5535 183.413 33.8686 186.598 33.8686C189.51 33.8686 191.965 34.4151 193.965 35.5072C195.961 36.5993 197.571 37.9143 198.791 39.4504C200.01 40.9865 200.89 42.5739 201.431 44.2125C201.974 45.852 202.247 47.2156 202.247 48.3095C202.247 49.2658 202.126 49.8977 201.89 50.2024C201.652 50.5116 201.095 50.6662 200.215 50.6662H175.432V50.6662Z" fill="white"/>
</svg>
