<?xml version="1.0" encoding="UTF-8"?><svg id="Layer_1" xmlns="http://www.w3.org/2000/svg" xmlns:xlink="http://www.w3.org/1999/xlink" viewBox="0 0 600 53.66"><defs><style>.cls-1,.cls-2,.cls-3{fill:none;}.cls-4{fill:#fff;}.cls-5{fill:#ffd960;}.cls-2{stroke:#fff;stroke-width:2px;}.cls-3{clip-path:url(#clippath);}</style><clipPath id="clippath"><rect class="cls-1" x=".79" y="2.91" width="141.33" height="47.23"/></clipPath></defs><g class="cls-3"><path class="cls-4" d="m9.61,48.84c-1.02,0-2.16.06-3.37.12-1.21.06-2.22.12-3.05.12-.19,0-.44,0-.76-.06-.32-.06-.51-.25-.51-.62,0-.25.19-.55.51-.8.32-.25,1.02-.49,2.16-.68.38-.06.76-.12,1.14-.25.38-.12.7-.31,1.02-.62.32-.31.57-.74.76-1.29.19-.55.25-1.35.25-2.34V9.99c0-.31-.19-.55-.51-.74-.32-.18-.76-.25-1.27-.37-.51,0-1.02-.06-1.52-.06-.57,0-1.08-.06-1.52-.12-.83-.06-1.4-.18-1.71-.25-.32-.06-.44-.25-.44-.62,0-.25.13-.49.32-.68.19-.18.44-.25.76-.37.25-.06.57-.12.89-.12s.57-.06.83-.06h6.48c1.78,0,3.56-.06,5.33-.18,1.78-.12,3.81-.18,6.1-.18,3.75,0,7.24.43,10.54,1.35,3.3.92,6.16,2.34,8.57,4.25,2.48,1.91,4.38,4.43,5.78,7.39,1.4,3.02,2.16,6.59,2.16,10.71,0,2.59-.57,4.99-1.78,7.33-1.14,2.28-2.73,4.31-4.76,5.97-1.97,1.72-4.32,3.02-6.98,4.06-2.67.99-5.52,1.48-8.57,1.48H9.61v.06Zm4.25-8.62c0,1.17.25,2.22.76,3.08.51.86,1.21,1.6,2.1,2.16.89.55,1.84.99,2.92,1.29,1.08.25,2.22.43,3.37.43.95,0,2.1-.12,3.37-.43,1.27-.25,2.6-.68,4-1.29,1.4-.55,2.73-1.35,4.13-2.34,1.4-.99,2.6-2.16,3.68-3.51,1.08-1.35,1.97-2.96,2.67-4.74.63-1.79,1.02-3.88,1.02-6.22s-.32-4.49-1.02-6.4c-.63-1.91-1.59-3.63-2.73-5.17-1.14-1.54-2.48-2.83-3.94-3.94-1.52-1.11-3.05-2.03-4.7-2.77-1.59-.74-3.24-1.29-4.95-1.6-1.65-.31-3.17-.43-4.7-.43s-2.6.06-3.43.18c-.83.12-1.4.31-1.78.49-.38.18-.63.43-.7.74-.06.25-.13.55-.13.74v29.74h.06Z"/><path class="cls-4" d="m62.94,50.14c-1.65,0-3.05-.25-4.19-.68-1.14-.43-1.97-1.11-2.6-1.97-.63-.86-1.08-1.91-1.33-3.08-.25-1.17-.38-2.52-.38-4,0-1.05,0-2.22.06-3.51,0-1.29.06-2.59.06-3.88s0-2.65.06-3.88c0-1.29.06-2.4.06-3.39,0-.49-.25-.8-.7-.99-.44-.12-.95-.25-1.33-.37-.83-.25-1.4-.43-1.71-.49-.25-.12-.44-.31-.44-.49,0-.31.19-.49.51-.55s.76-.06,1.27-.06,1.02,0,1.52.06c.51.06,1.02.06,1.52.06s1.08,0,1.59-.06c.51-.06,1.08-.06,1.59-.06s.76.12.89.25c.13.18.19.55.19,1.05,0,3.08,0,6.16-.06,9.24-.06,3.08-.06,6.16-.06,9.24,0,1.42.51,2.52,1.46,3.26,1.02.74,2.35,1.11,4.13,1.11,1.97,0,3.56-.18,4.63-.55,1.14-.37,1.97-.86,2.54-1.42s.95-1.23,1.08-1.97c.19-.74.25-1.48.25-2.16,0-2.46,0-4.93.06-7.39.06-2.46.06-4.93.06-7.39,0-.18-.06-.37-.13-.49-.06-.12-.25-.25-.51-.37-.25-.06-.64-.18-1.08-.31-.44-.12-1.14-.31-1.97-.49-.25-.06-.7-.25-1.27-.43-.57-.18-.83-.43-.83-.68s.19-.37.51-.43c.32-.06.7-.12,1.08-.12.63,0,1.21,0,1.84.06.57.06,1.21.06,1.84.06.7,0,1.4,0,2.1-.06.7-.06,1.4-.06,2.1-.06.25,0,.57.06.95.25.38.18.57.55.57,1.23,0,3.51-.06,6.96-.13,10.47-.06,3.45-.13,6.96-.13,10.47,0,.74.25,1.17.7,1.35.44.18.83.25,1.14.25,1.4,0,2.35,0,2.86.06.57.06.83.25.83.62,0,.25-.13.43-.32.55-.19.06-.57.18-1.08.25-2.54.37-4.51.68-5.9.92-1.46.25-2.35.43-2.67.43-.25,0-.44-.12-.51-.31-.06-.18-.06-.49-.06-.8v-1.6c0-.55-.19-.8-.51-.8-.25,0-.7.18-1.21.62-.51.43-1.21.86-2.03,1.42-.83.55-1.78.99-2.92,1.42-1.27.37-2.54.62-4,.62Z"/><path class="cls-4" d="m89.86,9.62c0-.92-.19-1.6-.51-1.97-.38-.37-.76-.68-1.21-.8-.44-.18-.83-.31-1.21-.37-.38-.06-.51-.31-.51-.62,0-.25.13-.43.38-.49.25-.12.63-.25,1.14-.43l4.83-1.79c.19-.06.38-.12.57-.12h.63c.19,0,.38.06.51.25.19.18.25.49.25.99v28.39c0,.74.19,1.11.63,1.11.13,0,.44-.12,1.08-.43.63-.31,1.4-.68,2.22-1.17.83-.49,1.78-1.05,2.73-1.6.95-.62,1.84-1.17,2.67-1.72.83-.55,1.46-1.05,2.03-1.48.57-.43.83-.8.83-.99,0-.43-.13-.8-.44-1.05-.32-.25-.57-.43-.95-.62-.32-.18-.63-.31-.95-.49-.25-.18-.44-.37-.44-.68,0-.18.13-.37.32-.49.19-.12.44-.18.7-.18.76,0,1.65,0,2.6.06.95.06,1.9.06,2.86.06.89,0,1.84,0,2.79-.06.95-.06,1.84-.06,2.54-.06.32,0,.63.06.95.12.25.06.44.31.44.68,0,.18-.13.37-.38.49-.25.18-.57.31-.95.43-.38.12-.76.25-1.14.37-.38.12-.7.25-.95.31-.51.25-1.52.74-3.05,1.54-1.52.8-3.05,1.66-4.63,2.59-1.59.92-2.98,1.79-4.25,2.59-1.21.8-1.84,1.29-1.84,1.48,0,.25.06.43.19.62.13.18.25.31.38.37l12.32,10.84c.7.62,1.4,1.11,2.1,1.48.7.31,1.27.62,1.84.8.51.18.95.37,1.27.49s.44.31.44.55c0,.43-.63.68-1.84.68-.76,0-1.59-.06-2.48-.12-.89-.06-1.9-.12-2.98-.12-.95,0-1.84.06-2.73.12-.83.06-1.71.12-2.54.12-.76,0-1.33-.06-1.65-.12-.32-.06-.51-.25-.51-.55s.19-.55.57-.68c.38-.12.89-.25,1.52-.31.38-.06.7-.18.95-.37.25-.18.38-.37.38-.62s-.25-.62-.76-1.11l-10.73-9.85c-.32-.25-.51-.43-.63-.43-.32,0-.51.12-.51.37v9.79c0,.8.19,1.29.51,1.6.38.31.7.49,1.02.55.57.18,1.08.31,1.46.37.38.06.63.25.63.62,0,.25-.19.43-.51.55-.38.06-.7.12-1.08.12-.83,0-1.65-.06-2.41-.12-.76-.06-1.52-.12-2.35-.12-.89,0-1.78.06-2.73.12s-1.78.12-2.41.12c-.25,0-.57-.06-1.02-.12-.44-.06-.7-.25-.7-.62,0-.31.13-.55.38-.68.25-.12.57-.25.95-.31.44-.12.95-.25,1.33-.37.44-.12.83-.25,1.14-.43s.57-.49.76-.8c.19-.37.25-.92.25-1.66V9.62"/><path class="cls-4" d="m123.39,32.84c-.06.25-.13.55-.13.99v1.48c0,1.48.13,2.89.38,4.31.25,1.35.76,2.59,1.46,3.69.76,1.05,1.78,1.91,3.11,2.59,1.33.68,3.11.99,5.27.99,1.4,0,2.41-.12,3.17-.43.76-.25,1.33-.62,1.78-.92.44-.37.76-.68,1.02-.99.25-.31.51-.43.76-.43.44,0,.64.18.64.55,0,.12-.19.49-.57,1.05-.38.55-1.02,1.17-1.84,1.85-.83.68-1.9,1.29-3.24,1.79-1.33.55-2.86.8-4.7.8-3.94,0-6.98-1.23-9.14-3.76-2.16-2.52-3.24-5.91-3.24-10.28,0-1.6.25-3.26.76-4.99.51-1.72,1.33-3.26,2.35-4.68,1.08-1.42,2.41-2.59,4-3.51,1.59-.92,3.56-1.35,5.78-1.35,2.03,0,3.75.37,5.14,1.11,1.4.74,2.54,1.6,3.37,2.65s1.46,2.09,1.84,3.2c.38,1.11.57,2.03.57,2.77,0,.62-.06,1.05-.25,1.29-.19.18-.57.31-1.14.31h-17.14v-.06Zm6.79-2.03c1.59,0,2.79-.06,3.75-.18.95-.12,1.71-.31,2.22-.62.51-.25.89-.62,1.02-1.05.19-.43.25-.92.25-1.6,0-1.17-.51-2.22-1.52-3.02-1.02-.8-2.22-1.23-3.75-1.23-1.27,0-2.41.25-3.43.8-1.02.55-1.84,1.17-2.54,1.91-.7.74-1.21,1.48-1.59,2.28-.38.8-.57,1.48-.57,1.97,0,.12.06.25.13.31.06.06.32.12.7.18.38.06,1.02.06,1.84.12.83.06,1.97.12,3.49.12Z"/></g><path class="cls-5" d="m183.91,47.93v-21.07h2.53v21.07h-2.53Z"/><path class="cls-5" d="m209.47,47.93h-2.92l-11.88-17.7h-.12c.03.47.06,1.01.1,1.61.04.6.07,1.23.09,1.92.03.67.04,1.36.04,2.06v12.11h-2.35v-21.07h2.91l11.83,17.64h.1c-.02-.34-.05-.81-.07-1.43-.03-.62-.06-1.29-.09-2-.02-.72-.03-1.39-.03-2v-12.21h2.38v21.07Z"/><path class="cls-5" d="m217.95,47.93h-2.53v-21.07h12.13v2.16h-9.6v7.72h9.02v2.15h-9.02v9.04Z"/><path class="cls-5" d="m250.08,37.36c0,1.62-.21,3.1-.64,4.44-.43,1.33-1.06,2.47-1.91,3.43-.83.95-1.87,1.69-3.11,2.21-1.24.52-2.68.78-4.32.78s-3.16-.26-4.43-.78c-1.25-.52-2.3-1.26-3.13-2.22-.82-.96-1.45-2.11-1.86-3.44-.41-1.34-.61-2.82-.61-4.44,0-2.15.37-4.04,1.1-5.66.74-1.62,1.85-2.89,3.34-3.79,1.5-.9,3.38-1.35,5.63-1.35s3.97.45,5.44,1.34c1.48.89,2.6,2.15,3.35,3.78.76,1.61,1.15,3.52,1.15,5.72Zm-17.35,0c0,1.79.26,3.33.79,4.64.53,1.31,1.33,2.32,2.41,3.03,1.09.71,2.48,1.07,4.16,1.07s3.07-.36,4.14-1.07c1.08-.71,1.88-1.72,2.4-3.03.52-1.31.78-2.85.78-4.64,0-2.72-.59-4.84-1.77-6.37-1.17-1.54-3.01-2.31-5.5-2.31-1.69,0-3.08.35-4.17,1.05-1.09.7-1.91,1.7-2.44,3-.53,1.29-.79,2.83-.79,4.63Z"/><path class="cls-5" d="m260.82,26.86c1.79,0,3.26.22,4.43.65,1.17.42,2.05,1.07,2.62,1.95.58.87.86,1.99.86,3.34,0,1.11-.21,2.05-.63,2.8-.42.74-.96,1.34-1.64,1.8-.68.46-1.4.82-2.16,1.07l5.98,9.47h-2.95l-5.33-8.79h-4.53v8.79h-2.53v-21.07h5.89Zm-.15,2.12h-3.2v8.09h3.46c1.78,0,3.08-.35,3.92-1.05.84-.7,1.27-1.73,1.27-3.1,0-1.43-.45-2.45-1.34-3.04-.88-.6-2.25-.89-4.1-.89Z"/><path class="cls-5" d="m283.35,47.93l-7.32-18.65h-.12c.04.39.07.87.1,1.44.03.57.05,1.19.07,1.86.02.66.03,1.34.03,2.03v13.32h-2.35v-21.07h3.76l6.9,17.53h.1l7-17.53h3.73v21.07h-2.5v-13.49c0-.62.01-1.25.03-1.87.02-.63.04-1.23.07-1.79.03-.57.06-1.06.09-1.47h-.12l-7.41,18.62h-2.07Z"/><path class="cls-5" d="m314.89,47.93l-2.68-6.69h-8.73l-2.67,6.69h-2.56l8.52-21.16h2.28l8.46,21.16h-2.62Zm-3.44-8.86l-2.55-6.64c-.06-.17-.16-.46-.3-.85-.13-.39-.26-.8-.4-1.23-.14-.42-.25-.76-.34-1.02-.1.39-.21.79-.33,1.18-.11.38-.22.74-.33,1.08-.11.33-.2.61-.28.84l-2.59,6.64h7.12Z"/><path class="cls-5" d="m327.23,47.93h-2.55v-18.91h-6.86v-2.16h16.23v2.16h-6.83v18.91Z"/><path class="cls-5" d="m337.34,47.93v-21.07h2.53v21.07h-2.53Z"/><path class="cls-5" d="m364.77,37.36c0,1.62-.21,3.1-.64,4.44-.43,1.33-1.06,2.47-1.91,3.43-.83.95-1.87,1.69-3.11,2.21-1.24.52-2.68.78-4.32.78s-3.16-.26-4.43-.78c-1.25-.52-2.3-1.26-3.13-2.22-.82-.96-1.45-2.11-1.86-3.44-.41-1.34-.61-2.82-.61-4.44,0-2.15.37-4.04,1.1-5.66.74-1.62,1.85-2.89,3.34-3.79,1.5-.9,3.38-1.35,5.63-1.35s3.97.45,5.44,1.34c1.48.89,2.6,2.15,3.35,3.78.76,1.61,1.15,3.52,1.15,5.72Zm-17.35,0c0,1.79.26,3.33.79,4.64.53,1.31,1.33,2.32,2.41,3.03,1.09.71,2.48,1.07,4.16,1.07s3.07-.36,4.14-1.07c1.08-.71,1.88-1.72,2.4-3.03s.78-2.85.78-4.64c0-2.72-.59-4.84-1.77-6.37-1.17-1.54-3.01-2.31-5.5-2.31-1.69,0-3.08.35-4.17,1.05-1.09.7-1.91,1.7-2.44,3-.53,1.29-.79,2.83-.79,4.63Z"/><path class="cls-5" d="m386.66,47.93h-2.92l-11.88-17.7h-.12c.03.47.06,1.01.1,1.61.04.6.07,1.23.09,1.92.03.67.04,1.36.04,2.06v12.11h-2.35v-21.07h2.91l11.83,17.64h.1c-.02-.34-.04-.81-.07-1.43-.03-.62-.06-1.29-.09-2-.02-.72-.03-1.39-.03-2v-12.21h2.38v21.07Z"/><path class="cls-5" d="m407.22,47.93h-2.55v-18.91h-6.86v-2.16h16.23v2.16h-6.83v18.91Z"/><path class="cls-5" d="m429.47,47.93h-12.13v-21.07h12.13v2.16h-9.6v6.82h9.05v2.13h-9.05v7.8h9.6v2.16Z"/><path class="cls-5" d="m443.62,28.72c-1.2,0-2.29.2-3.25.61-.95.39-1.77.97-2.44,1.73-.67.75-1.18,1.66-1.53,2.72-.36,1.07-.54,2.27-.54,3.6,0,1.77.28,3.31.85,4.61.58,1.3,1.43,2.3,2.56,3.01,1.14.71,2.57,1.07,4.28,1.07.97,0,1.89-.08,2.74-.23.86-.16,1.7-.37,2.52-.61v2.13c-.79.29-1.63.5-2.5.63-.87.14-1.91.22-3.11.22-2.22,0-4.07-.44-5.56-1.33-1.48-.89-2.59-2.15-3.34-3.78-.74-1.62-1.1-3.54-1.1-5.75,0-1.59.23-3.05.69-4.37.47-1.33,1.14-2.47,2.03-3.43.89-.96,1.99-1.7,3.28-2.22,1.3-.53,2.79-.79,4.47-.79,1.1,0,2.17.11,3.19.32,1.02.21,1.95.51,2.77.91l-1.01,2.08c-.7-.31-1.46-.57-2.3-.79-.82-.23-1.72-.35-2.68-.35Z"/><path class="cls-5" d="m470.04,47.93h-2.53v-9.93h-11.45v9.93h-2.53v-21.07h2.53v8.98h11.45v-8.98h2.53v21.07Z"/><path class="cls-5" d="m493.06,47.93h-2.92l-11.88-17.7h-.12c.03.47.07,1.01.1,1.61.04.6.07,1.23.09,1.92.03.67.05,1.36.05,2.06v12.11h-2.36v-21.07h2.91l11.83,17.64h.11c-.02-.34-.05-.81-.08-1.43-.03-.62-.06-1.29-.09-2-.02-.72-.03-1.39-.03-2v-12.21h2.39v21.07Z"/><path class="cls-5" d="m517.91,37.36c0,1.62-.22,3.1-.64,4.44-.43,1.33-1.06,2.47-1.91,3.43-.84.95-1.87,1.69-3.11,2.21-1.24.52-2.69.78-4.32.78s-3.16-.26-4.42-.78c-1.25-.52-2.3-1.26-3.13-2.22-.82-.96-1.45-2.11-1.86-3.44-.41-1.34-.62-2.82-.62-4.44,0-2.15.37-4.04,1.1-5.66.74-1.62,1.85-2.89,3.34-3.79,1.5-.9,3.38-1.35,5.63-1.35s3.97.45,5.44,1.34c1.48.89,2.6,2.15,3.35,3.78.77,1.61,1.15,3.52,1.15,5.72Zm-17.34,0c0,1.79.26,3.33.79,4.64.53,1.31,1.33,2.32,2.41,3.03,1.09.71,2.48,1.07,4.16,1.07s3.07-.36,4.15-1.07c1.08-.71,1.88-1.72,2.4-3.03s.77-2.85.77-4.64c0-2.72-.59-4.84-1.77-6.37-1.17-1.54-3.01-2.31-5.5-2.31-1.69,0-3.08.35-4.17,1.05-1.09.7-1.91,1.7-2.44,3-.53,1.29-.79,2.83-.79,4.63Z"/><path class="cls-5" d="m522.76,47.93v-21.07h2.53v18.88h9.67v2.19h-12.2Z"/><path class="cls-5" d="m557.61,37.36c0,1.62-.22,3.1-.64,4.44-.43,1.33-1.06,2.47-1.91,3.43-.84.95-1.87,1.69-3.11,2.21-1.24.52-2.68.78-4.32.78s-3.16-.26-4.42-.78c-1.25-.52-2.3-1.26-3.13-2.22-.82-.96-1.45-2.11-1.86-3.44-.41-1.34-.62-2.82-.62-4.44,0-2.15.37-4.04,1.1-5.66.74-1.62,1.85-2.89,3.34-3.79,1.5-.9,3.38-1.35,5.63-1.35s3.97.45,5.44,1.34c1.48.89,2.6,2.15,3.36,3.78.76,1.61,1.15,3.52,1.15,5.72Zm-17.34,0c0,1.79.26,3.33.79,4.64s1.33,2.32,2.41,3.03c1.09.71,2.48,1.07,4.16,1.07s3.07-.36,4.15-1.07c1.08-.71,1.88-1.72,2.4-3.03.52-1.31.77-2.85.77-4.64,0-2.72-.59-4.84-1.77-6.37-1.17-1.54-3.01-2.31-5.5-2.31-1.69,0-3.08.35-4.17,1.05-1.09.7-1.91,1.7-2.44,3-.53,1.29-.79,2.83-.79,4.63Z"/><path class="cls-5" d="m571.78,36.89h7.62v10.22c-1.14.37-2.32.65-3.53.84-1.2.18-2.55.27-4.04.27-2.27,0-4.18-.44-5.74-1.31-1.55-.87-2.73-2.12-3.53-3.73-.81-1.62-1.21-3.55-1.21-5.78s.44-4.08,1.32-5.71c.89-1.62,2.18-2.88,3.86-3.78,1.69-.9,3.71-1.35,6.08-1.35,1.21,0,2.36.11,3.44.33,1.09.21,2.11.51,3.04.91l-.97,2.13c-.8-.34-1.69-.62-2.67-.86-.96-.24-1.96-.36-3-.36-1.78,0-3.3.36-4.57,1.07-1.26.71-2.23,1.72-2.91,3.01-.67,1.3-1,2.83-1,4.61s.3,3.29.88,4.6c.58,1.3,1.5,2.31,2.74,3.03,1.24.72,2.84,1.08,4.8,1.08.98,0,1.83-.05,2.53-.16.7-.12,1.35-.25,1.93-.4v-6.46h-5.09v-2.19Z"/><path class="cls-5" d="m590.22,37.42l5.8-10.56h2.73l-7.26,12.9v8.17h-2.53v-8.06l-7.27-13.01h2.77l5.77,10.56Z"/><path class="cls-5" d="m188.98,18.53c-1.1,0-2.03-.21-2.79-.64-.75-.42-1.32-1.02-1.7-1.8-.38-.78-.57-1.69-.57-2.74,0-.76.07-1.49.21-2.2.14-.71.35-1.38.62-2.01.27-.64.6-1.22,1-1.74.4-.53.86-.98,1.37-1.36.51-.38,1.08-.68,1.7-.88.63-.21,1.3-.32,2.03-.32,1.54,0,2.74.46,3.61,1.39.87.92,1.31,2.2,1.31,3.85,0,.73-.06,1.45-.19,2.15-.13.7-.31,1.36-.56,1.99-.25.63-.56,1.21-.94,1.74-.38.52-.81.97-1.32,1.35-.5.38-1.07.68-1.69.89-.63.21-1.32.32-2.08.32Zm.06-1.35c.54,0,1.04-.09,1.49-.27.46-.18.87-.44,1.24-.76.38-.33.71-.71.99-1.15.29-.44.53-.93.72-1.45.19-.53.34-1.09.44-1.68.1-.59.15-1.19.15-1.8,0-1.21-.3-2.15-.89-2.83-.59-.67-1.41-1.01-2.45-1.01-.54,0-1.04.09-1.5.26-.46.17-.89.42-1.27.74-.38.32-.72.69-1.02,1.13-.29.44-.53.92-.73,1.45-.2.53-.35,1.09-.46,1.68-.1.59-.15,1.21-.15,1.85,0,.8.13,1.49.4,2.06s.66,1.02,1.18,1.33c.51.31,1.13.46,1.86.46Z"/><path class="cls-5" d="m195.41,22.82c-.24,0-.47-.02-.68-.05-.21-.04-.39-.08-.55-.14v-1.28c.17.06.34.11.52.15.18.04.36.06.56.06.39,0,.73-.15,1.02-.46.29-.31.51-.85.68-1.63l2.16-9.93h-1.8l.13-.65,1.91-.55.23-.96c.14-.62.32-1.14.52-1.55.21-.42.45-.76.72-1.01.28-.25.6-.44.96-.55.37-.11.79-.16,1.27-.16.31,0,.63.04.96.11.33.07.6.15.81.24l-.4,1.15c-.19-.07-.39-.12-.6-.17-.21-.05-.44-.08-.7-.08-.53,0-.95.15-1.26.44-.3.28-.54.82-.71,1.6l-.24,1h4.44l.24-1.03c.14-.61.32-1.13.52-1.55.2-.42.44-.75.71-1,.28-.25.6-.44.97-.55.37-.11.79-.16,1.27-.16.33,0,.65.04.98.11.33.07.6.15.81.24l-.43,1.15c-.18-.07-.37-.12-.59-.17-.21-.05-.44-.08-.69-.08-.53,0-.95.15-1.26.44-.3.28-.54.82-.72,1.6l-.23,1h2.24l-.25,1.15h-2.23l-2.19,10.1c-.15.67-.35,1.24-.61,1.71-.25.48-.58.84-.99,1.09-.4.25-.9.38-1.49.38-.23,0-.45-.02-.67-.05-.21-.04-.39-.08-.54-.14v-1.28c.16.06.33.11.51.15.18.04.38.06.58.06.39,0,.72-.16,1.01-.47.29-.32.51-.85.67-1.62l2.16-9.93h-4.44l-2.2,10.1c-.15.67-.35,1.24-.61,1.71-.26.48-.59.84-.99,1.09-.4.25-.9.38-1.49.38Zm13.53-4.47l2.2-9.96h1.57l-2.21,9.96h-1.56Zm3.5-11.71c-.23,0-.43-.07-.6-.21-.16-.15-.24-.35-.24-.61,0-.2.04-.39.12-.56.09-.18.21-.32.37-.42.16-.11.35-.16.57-.16.28,0,.48.07.62.21.14.14.21.33.21.58,0,.36-.11.64-.33.85-.22.21-.46.32-.71.32Z"/><path class="cls-5" d="m217.99,18.53c-.76,0-1.44-.14-2.01-.42-.57-.28-1.02-.7-1.33-1.25-.31-.55-.47-1.24-.47-2.05,0-.71.08-1.39.23-2.05.16-.65.4-1.26.71-1.81.31-.55.68-1.03,1.12-1.45.44-.41.94-.73,1.49-.95.56-.23,1.18-.35,1.84-.35.45,0,.89.04,1.33.13.44.08.85.19,1.2.35l-.44,1.27c-.26-.12-.57-.23-.93-.33-.36-.1-.74-.15-1.15-.15-.57,0-1.09.14-1.56.42-.46.28-.86.67-1.2,1.16-.33.49-.59,1.05-.77,1.69-.18.64-.27,1.32-.27,2.04,0,.52.09.96.28,1.34.19.37.46.65.81.85.36.2.78.3,1.28.3.46,0,.89-.06,1.29-.18.41-.12.81-.27,1.19-.44v1.29c-.34.17-.74.31-1.18.42-.44.11-.92.16-1.45.16Z"/><path class="cls-5" d="m226.63,18.53c-.77,0-1.44-.15-1.99-.45-.56-.3-.99-.73-1.29-1.29-.29-.56-.44-1.24-.44-2.02s.12-1.6.36-2.37c.24-.78.59-1.49,1.04-2.12.45-.64.99-1.14,1.63-1.52.64-.38,1.35-.56,2.14-.56.95,0,1.66.21,2.15.62.49.41.73.97.73,1.68,0,.5-.12.97-.37,1.39-.24.42-.61.79-1.11,1.11-.5.31-1.13.55-1.89.73-.76.17-1.66.25-2.7.25h-.36c-.01.11-.02.23-.04.36,0,.13,0,.26,0,.37,0,.8.2,1.43.6,1.88.4.45,1,.67,1.8.67.5,0,.96-.07,1.4-.2.45-.14.91-.32,1.39-.55v1.3c-.46.21-.93.38-1.4.51-.47.13-1.02.19-1.66.19Zm-1.86-5.78h.23c.8,0,1.54-.07,2.21-.2.67-.14,1.21-.36,1.62-.67.41-.32.61-.73.61-1.25,0-.34-.12-.62-.36-.84-.24-.22-.6-.33-1.09-.33-.43,0-.86.13-1.28.39-.42.25-.8.63-1.15,1.12-.34.49-.6,1.08-.79,1.78Z"/><path class="cls-5" d="m241.3,18.5c-.79,0-1.47-.15-2.04-.46-.57-.32-1.01-.76-1.32-1.33-.3-.58-.45-1.25-.45-2.04,0-.63.07-1.25.22-1.86.14-.62.36-1.2.64-1.75.28-.55.63-1.04,1.04-1.45.42-.42.9-.75,1.45-.99.55-.24,1.15-.36,1.82-.36.8,0,1.49.16,2.05.47.57.31,1.01.75,1.31,1.33.31.58.46,1.26.46,2.05,0,.62-.07,1.23-.22,1.85-.14.61-.35,1.19-.63,1.75-.28.55-.62,1.03-1.04,1.45-.41.42-.9.75-1.45.99-.55.24-1.16.36-1.84.36Zm.09-1.25c.39,0,.76-.08,1.11-.24.35-.16.67-.38.96-.68.29-.3.54-.67.74-1.1.21-.44.38-.93.49-1.48.12-.55.18-1.16.18-1.82,0-.39-.07-.78-.22-1.15-.14-.37-.38-.67-.7-.91-.32-.24-.75-.36-1.28-.36-.44,0-.85.09-1.22.26-.37.18-.7.42-1,.75-.29.32-.55.7-.75,1.14-.2.44-.36.92-.47,1.44-.11.52-.16,1.07-.16,1.65,0,.79.2,1.41.6,1.85.4.44.97.65,1.71.65Z"/><path class="cls-5" d="m246.43,22.82c-.24,0-.47-.02-.68-.05-.21-.04-.39-.08-.55-.14v-1.28c.17.06.34.11.52.15.18.04.36.06.56.06.46,0,.82-.18,1.08-.54.26-.36.46-.88.62-1.55l2.16-9.93h-1.8l.13-.65,1.91-.55.23-.96c.14-.62.32-1.14.52-1.55.21-.42.45-.76.72-1.01.28-.25.6-.44.96-.55.37-.11.79-.16,1.27-.16.31,0,.63.04.96.11.33.07.6.15.81.24l-.4,1.15c-.19-.07-.39-.12-.6-.17-.21-.05-.44-.08-.7-.08-.53,0-.95.15-1.26.44-.3.28-.54.82-.71,1.6l-.24,1h2.22l-.23,1.15h-2.23l-2.2,10.1c-.15.67-.35,1.24-.61,1.71-.26.48-.59.84-.99,1.09-.4.25-.9.38-1.49.38Z"/><line class="cls-2" x1="161.84" y1="48.32" x2="161.84" y2="2.91"/></svg>